<svg xmlns="http://www.w3.org/2000/svg" viewBox="0 0 64 64">
  <defs>
    <linearGradient id="beam" x1="0%" y1="100%" x2="100%" y2="0%">
      <stop offset="0%" stop-color="#6ee7ff" stop-opacity="0.1" />
      <stop offset="34%" stop-color="#7bd3ff" stop-opacity="0.95" />
      <stop offset="64%" stop-color="#c98cff" stop-opacity="0.92" />
      <stop offset="100%" stop-color="#6ee7ff" stop-opacity="0.12" />
    </linearGradient>
    <radialGradient id="core" cx="50%" cy="50%" r="50%">
      <stop offset="0%" stop-color="#fff9e8" />
      <stop offset="32%" stop-color="#f1b5ff" />
      <stop offset="62%" stop-color="#6ecfff" />
      <stop offset="100%" stop-color="#0a0f1d" stop-opacity="0" />
    </radialGradient>
    <filter id="glow" x="-60%" y="-60%" width="220%" height="220%">
      <feGaussianBlur stdDeviation="1.8" result="blur" />
      <feMerge>
        <feMergeNode in="blur" />
        <feMergeNode in="SourceGraphic" />
      </feMerge>
    </filter>
  </defs>

  <rect width="64" height="64" rx="14" fill="#060913" />

  <path
    d="M-2 49 C 11 39, 18 52, 31 36 S 48 14, 66 20"
    fill="none"
    stroke="url(#beam)"
    stroke-width="5.2"
    stroke-linecap="round"
    filter="url(#glow)"
  />

  <path
    d="M2 53 C 15 43, 22 54, 34 38 S 50 18, 63 23"
    fill="none"
    stroke="#7ce6ff"
    stroke-opacity="0.42"
    stroke-width="1.4"
    stroke-linecap="round"
  />

  <circle cx="32" cy="32" r="10.5" fill="url(#core)" filter="url(#glow)" />

  <g
    fill="none"
    stroke="#bdb5ff"
    stroke-width="1.15"
    stroke-linecap="round"
    stroke-linejoin="round"
    filter="url(#glow)"
  >
    <polygon points="32,10.5 46.5,18.4 46.5,35.6 32,43.5 17.5,35.6 17.5,18.4" />
    <polygon points="32,16.2 41.5,21.5 41.5,32.5 32,37.8 22.5,32.5 22.5,21.5" />
    <line x1="32" y1="10.5" x2="32" y2="43.5" />
    <line x1="17.5" y1="18.4" x2="46.5" y2="35.6" />
    <line x1="46.5" y1="18.4" x2="17.5" y2="35.6" />
  </g>

  <g fill="#ffffff" filter="url(#glow)">
    <circle cx="13" cy="20" r="1.2" />
    <circle cx="48.5" cy="11.5" r="1" />
    <circle cx="53.5" cy="39.5" r="1.1" />
    <circle cx="21.5" cy="49.5" r="0.9" />
  </g>
</svg>
