<svg xmlns="http://www.w3.org/2000/svg" viewBox="0 0 1280 720" fill="none">
  <rect width="1280" height="720" fill="#071019"/>
  <text x="84" y="94" fill="#F3F8FC" font-family="Arial, sans-serif" font-size="32" font-weight="700">REMOTE SENSING ARCHITECTURE</text>
  <rect x="88" y="164" width="236" height="128" rx="24" fill="#102432" stroke="#8FE5FF"/>
  <rect x="378" y="164" width="236" height="128" rx="24" fill="#102432" stroke="#8FE5FF"/>
  <rect x="668" y="164" width="236" height="128" rx="24" fill="#102432" stroke="#8FE5FF"/>
  <rect x="958" y="164" width="236" height="128" rx="24" fill="#102432" stroke="#FFD189"/>
  <rect x="232" y="420" width="236" height="128" rx="24" fill="#102432" stroke="#8FE5FF"/>
  <rect x="522" y="420" width="236" height="128" rx="24" fill="#102432" stroke="#FFD189"/>
  <rect x="812" y="420" width="236" height="128" rx="24" fill="#102432" stroke="#8FE5FF"/>
  <path d="M324 228h54m236 0h54m236 0h54" stroke="#8FE5FF" stroke-width="8" stroke-linecap="round"/>
  <path d="M496 292v96m290-96v96m290-96v96" stroke="#FFD189" stroke-width="8" stroke-linecap="round"/>
  <path d="M350 484h128m290 0h44" stroke="#8FE5FF" stroke-width="8" stroke-linecap="round"/>
  <text x="136" y="238" fill="#F3F8FC" font-family="Arial, sans-serif" font-size="28">Dataset</text>
  <text x="430" y="238" fill="#F3F8FC" font-family="Arial, sans-serif" font-size="28">Preprocess</text>
  <text x="716" y="238" fill="#F3F8FC" font-family="Arial, sans-serif" font-size="28">Training</text>
  <text x="1020" y="238" fill="#F3F8FC" font-family="Arial, sans-serif" font-size="28">Validation</text>
  <text x="286" y="494" fill="#F3F8FC" font-family="Arial, sans-serif" font-size="28">Metrics</text>
  <text x="594" y="494" fill="#F3F8FC" font-family="Arial, sans-serif" font-size="28">Review</text>
  <text x="868" y="494" fill="#F3F8FC" font-family="Arial, sans-serif" font-size="28">Presentation</text>
</svg>
