<svg xmlns="http://www.w3.org/2000/svg" viewBox="0 0 1280 720" fill="none">
  <rect width="1280" height="720" fill="#08111A"/>
  <rect x="56" y="56" width="1168" height="608" rx="28" fill="#0F1F2D" stroke="#1C3A50"/>
  <rect x="96" y="112" width="260" height="496" rx="18" fill="#122838"/>
  <rect x="388" y="112" width="796" height="92" rx="18" fill="#112536"/>
  <rect x="388" y="228" width="246" height="164" rx="18" fill="#122838"/>
  <rect x="662" y="228" width="246" height="164" rx="18" fill="#122838"/>
  <rect x="936" y="228" width="248" height="164" rx="18" fill="#122838"/>
  <rect x="388" y="416" width="796" height="192" rx="18" fill="#122838"/>
  <path d="M130 170h172m-172 44h120m-120 44h148m-148 44h132" stroke="#8FE5FF" stroke-width="10" stroke-linecap="round"/>
  <path d="M430 154h480" stroke="#F3F8FC" stroke-width="12" stroke-linecap="round"/>
  <path d="M430 276h128m0 40h68m144-40h96m0 40h54m144-40h88m0 40h48" stroke="#8FE5FF" stroke-width="10" stroke-linecap="round"/>
  <path d="M430 470h682m-682 46h560m-560 46h624" stroke="#FFD189" stroke-width="10" stroke-linecap="round"/>
  <text x="96" y="94" fill="#F3F8FC" font-family="Arial, sans-serif" font-size="30" font-weight="700">DEVELOPER CHEATSHEET</text>
</svg>
