<svg xmlns="http://www.w3.org/2000/svg" viewBox="0 0 1280 720" fill="none">
  <rect width="1280" height="720" fill="#08111A"/>
  <text x="84" y="94" fill="#F3F8FC" font-family="Arial, sans-serif" font-size="32" font-weight="700">DIGITAL UNIVERSE ARCHITECTURE</text>
  <rect x="88" y="160" width="248" height="118" rx="22" fill="#102331" stroke="#8FE5FF"/>
  <rect x="388" y="160" width="248" height="118" rx="22" fill="#102331" stroke="#FFD189"/>
  <rect x="688" y="160" width="248" height="118" rx="22" fill="#102331" stroke="#8FE5FF"/>
  <rect x="988" y="160" width="204" height="118" rx="22" fill="#102331" stroke="#FFD189"/>
  <rect x="212" y="408" width="248" height="118" rx="22" fill="#102331" stroke="#8FE5FF"/>
  <rect x="516" y="408" width="248" height="118" rx="22" fill="#102331" stroke="#FFD189"/>
  <rect x="820" y="408" width="248" height="118" rx="22" fill="#102331" stroke="#8FE5FF"/>
  <path d="M336 220h52m248 0h52m248 0h52" stroke="#8FE5FF" stroke-width="8" stroke-linecap="round"/>
  <path d="M510 278v92m304-92v92m304-92v92" stroke="#FFD189" stroke-width="8" stroke-linecap="round"/>
  <path d="M460 466h56m248 0h56" stroke="#8FE5FF" stroke-width="8" stroke-linecap="round"/>
  <text x="128" y="228" fill="#F3F8FC" font-family="Arial, sans-serif" font-size="26">Content</text>
  <text x="436" y="228" fill="#F3F8FC" font-family="Arial, sans-serif" font-size="26">Router</text>
  <text x="728" y="228" fill="#F3F8FC" font-family="Arial, sans-serif" font-size="26">State</text>
  <text x="1030" y="228" fill="#F3F8FC" font-family="Arial, sans-serif" font-size="26">Audio</text>
  <text x="266" y="476" fill="#F3F8FC" font-family="Arial, sans-serif" font-size="26">3D Scene</text>
  <text x="584" y="476" fill="#F3F8FC" font-family="Arial, sans-serif" font-size="26">Sections</text>
  <text x="884" y="476" fill="#F3F8FC" font-family="Arial, sans-serif" font-size="26">Overlays</text>
</svg>
